<svg width="40" height="40" viewBox="0 0 40 40" fill="none" xmlns="http://www.w3.org/2000/svg">
<circle cx="20" cy="20" r="20" fill="#141E28"/>
<path fill-rule="evenodd" clip-rule="evenodd" d="M20.1933 13.2929C19.8288 12.9024 19.2379 12.9024 18.8734 13.2929L13.2734 19.2929L13.2622 19.305C12.9089 19.6964 12.9126 20.3206 13.2734 20.7071L18.8734 26.7071L18.8847 26.7191C19.25 27.0976 19.8326 27.0936 20.1933 26.7071L20.2045 26.695C20.5578 26.3036 20.554 25.6794 20.1933 25.2929L16.1866 21H26.0667L26.0821 20.9999C26.5904 20.991 27 20.5468 27 20C27 19.4477 26.5821 19 26.0667 19H16.1866L20.1933 14.7071L20.2045 14.695C20.5578 14.3036 20.554 13.6794 20.1933 13.2929Z" fill="white"/>
</svg>
