<svg width="17" height="24" viewBox="0 0 17 24" fill="none" xmlns="http://www.w3.org/2000/svg">
<path fill-rule="evenodd" clip-rule="evenodd" d="M3.4 0H13.6C15.4778 0 17 1.5316 17 3.42094V23.0913C17 23.8293 16.1335 24.2208 15.5853 23.7305L8.5 17.3936L1.41471 23.7305C0.872025 24.2159 0.017299 23.837 0.000258778 23.1133L0 23.0913V3.42094C0 1.5316 1.52223 0 3.4 0ZM13.6281 1.7107L13.6 1.71047H3.4C2.46112 1.71047 1.7 2.47627 1.7 3.42094V21.1869L7.93529 15.6102C8.25239 15.3266 8.72776 15.3223 9.04973 15.5971L9.06471 15.6102L15.3 21.1869V3.42094C15.3 2.48572 14.554 1.7258 13.6281 1.7107Z" fill="white"/>
</svg>
