<svg width="24" height="24" viewBox="0 0 24 24" fill="none" xmlns="http://www.w3.org/2000/svg">
<path fill-rule="evenodd" clip-rule="evenodd" d="M-5.20831e-05 11.7553C-0.0208212 5.26061 5.35541 0 11.9904 0C17.701 0 22.5967 3.93953 23.7435 9.34887C23.9136 10.1412 23.9995 10.9493 24 11.7603C24 18.3075 18.7704 23.5971 12.1813 23.5971C11.2229 23.5971 9.86342 23.3798 8.92523 23.1172L8.86013 23.0989L8.76394 23.0711L8.66821 23.0428L8.57497 23.0147L8.48147 22.9859L8.43469 22.9713L8.34128 22.9418L8.24826 22.9119L8.15589 22.8817L8.06444 22.8515L7.97418 22.8211L7.88535 22.7909L7.7554 22.7459L7.67134 22.7163L7.58964 22.6871L7.47211 22.6445L7.39748 22.617L7.32613 22.5903L7.22585 22.552C7.14465 22.5208 7.05843 22.5048 6.96913 22.5047C6.87608 22.5044 6.78393 22.5229 6.69825 22.5592L6.67467 22.5692L3.06598 23.8713L3.02851 23.8862C2.894 23.9378 2.75371 23.9729 2.61069 23.9907L2.57463 23.9949L2.52428 24.0001L2.47366 24C2.0853 23.9988 1.71355 23.8424 1.44122 23.5655C1.1689 23.2886 1.01862 22.9143 1.02388 22.526L1.02427 22.4971L1.02642 22.4684C1.03582 22.3427 1.05848 22.2185 1.09403 22.0976L2.10174 18.4519L2.09663 18.4385C2.07949 18.3951 2.05451 18.3431 2.02398 18.2882L2.01806 18.2777L2.00278 18.2527C1.99017 18.2327 1.97703 18.2131 1.96337 18.1938L1.94249 18.1651L1.92554 18.1425L1.87278 18.0621C0.650828 16.1851 -5.6859e-05 13.9931 -5.20831e-05 11.7553ZM21.8981 9.74251C20.9362 5.20541 16.8123 1.88698 11.9904 1.88698C6.38951 1.88698 1.86952 6.30976 1.88692 11.7523C1.88692 13.6464 2.44267 15.4989 3.48531 17.0801L3.47322 17.0617L3.4868 17.0801C3.53156 17.1422 3.57409 17.2058 3.61431 17.2709L3.64404 17.32L3.65173 17.3332C3.75987 17.5223 3.84946 17.7162 3.91159 17.9143C4.00884 18.2244 4.03729 18.5296 3.95148 18.8428L3.12141 21.8453L5.99045 20.8099L6.00102 20.8056C6.29767 20.6856 6.61401 20.622 6.93202 20.6179L6.97351 20.6177C7.29108 20.6181 7.6059 20.6766 7.90399 20.7911L7.93373 20.8025L7.99614 20.8262L8.09653 20.8636L8.16754 20.8896L8.27944 20.9298L8.35721 20.9573L8.47787 20.9992L8.56055 21.0274L8.64468 21.0558L8.77295 21.0982L8.85942 21.1263L8.94631 21.1541L8.98982 21.1678L9.07679 21.1949L9.16343 21.2213L9.26476 21.2515L9.39181 21.2883L9.43382 21.3001C10.2173 21.5194 11.4107 21.7101 12.1813 21.7101C17.7234 21.7101 22.113 17.2702 22.113 11.7608C22.1126 11.0831 22.0407 10.4074 21.8981 9.74251Z" fill="white"/>
<circle cx="6.89699" cy="12" r="1.701" fill="white"/>
<circle cx="12" cy="12" r="1.701" fill="white"/>
<circle cx="17.103" cy="12" r="1.701" fill="white"/>
</svg>
