<svg width="22" height="22" viewBox="0 0 22 22" fill="none" xmlns="http://www.w3.org/2000/svg">
<path fill-rule="evenodd" clip-rule="evenodd" d="M0 11C0 4.92691 4.92691 0 11 0C17.0731 0 22 4.92691 22 11C22 17.0731 17.0731 22 11 22C4.92691 22 0 17.0731 0 11ZM20.2703 11C20.2703 5.88221 16.1178 1.72973 11 1.72973C5.88221 1.72973 1.72973 5.88221 1.72973 11C1.72973 16.1178 5.88221 20.2703 11 20.2703C16.1178 20.2703 20.2703 16.1178 20.2703 11Z" fill="#141E28"/>
<path d="M7.01003 7.01006C7.34309 6.677 7.88021 6.67237 8.21894 6.99618L8.23313 7.01006L14.9899 13.7668C15.3276 14.1046 15.3276 14.6522 14.9899 14.9899C14.6568 15.323 14.1197 15.3276 13.781 15.0038L13.7668 14.9899L7.01003 8.23316C6.67228 7.89541 6.67228 7.34781 7.01003 7.01006Z" fill="#141E28"/>
<path d="M13.7668 7.01006C14.1045 6.67231 14.6521 6.67231 14.9899 7.01006C15.3229 7.34312 15.3276 7.88024 15.0038 8.21897L14.9899 8.23316L8.23313 14.9899C7.89538 15.3277 7.34778 15.3277 7.01003 14.9899C6.67697 14.6569 6.67234 14.1197 6.99615 13.781L7.01003 13.7668L13.7668 7.01006Z" fill="#141E28"/>
</svg>
