<svg width="40" height="40" viewBox="0 0 40 40" fill="none" xmlns="http://www.w3.org/2000/svg">
<circle cx="20" cy="20" r="19" stroke="#141E28" stroke-width="2"/>
<path d="M23.1111 27.6154C23.5407 27.6154 23.8889 27.9253 23.8889 28.3077C23.8889 28.6855 23.5489 28.9926 23.1264 28.9999L23.1111 29H16.8889C16.4593 29 16.1111 28.69 16.1111 28.3077C16.1111 27.9299 16.4511 27.6228 16.8736 27.6155L16.8889 27.6154H23.1111Z" fill="#141E28"/>
<path d="M26.2222 17.2308C26.6467 17.2308 26.9917 17.5334 26.9999 17.9095L27 17.9231V19.3077C27 22.7362 23.8518 25.5385 20 25.5385C16.1867 25.5385 13.063 22.792 13.0009 19.4104L13 19.3077V17.9231C13 17.5407 13.3482 17.2308 13.7778 17.2308C14.2022 17.2308 14.5473 17.5334 14.5554 17.9095L14.5556 17.9231V19.3077C14.5556 21.9715 17.0073 24.1538 20 24.1538C22.9627 24.1538 25.3954 22.0149 25.4437 19.3875L25.4444 19.3077V17.9231C25.4444 17.5407 25.7927 17.2308 26.2222 17.2308Z" fill="#141E28"/>
<path d="M20 24.1538C20.4244 24.1538 20.7695 24.4565 20.7776 24.8325L20.7778 24.8462V28.3077C20.7778 28.69 20.4296 29 20 29C19.5756 29 19.2305 28.6974 19.2224 28.3213L19.2222 28.3077V24.8462C19.2222 24.4638 19.5705 24.1538 20 24.1538Z" fill="#141E28"/>
<path fill-rule="evenodd" clip-rule="evenodd" d="M17.2456 12.0098C17.9767 11.359 18.9699 10.9954 20.0039 11L20.0653 11.0004C22.2136 11.0304 23.8889 12.5409 23.8889 14.4615V19.2644C23.8889 21.1961 22.1403 22.7692 20 22.7692C17.8714 22.7692 16.1111 21.1721 16.1111 19.2644L16.1111 14.4296C16.1165 13.5216 16.524 12.652 17.2456 12.0098ZM20 12.3846L19.9961 12.3846C19.3773 12.3818 18.783 12.5994 18.3455 12.9888C17.9137 13.3732 17.6698 13.8936 17.6666 14.4333L17.6666 19.2644C17.6666 20.4132 18.7372 21.3846 20 21.3846C21.2775 21.3846 22.3333 20.4347 22.3333 19.2644V14.4615C22.3333 13.2862 21.3204 12.3846 20 12.3846Z" fill="#141E28"/>
</svg>
