<svg width="40" height="40" viewBox="0 0 40 40" fill="none" xmlns="http://www.w3.org/2000/svg">
<circle cx="20" cy="20" r="19" stroke="#141E28" stroke-width="2"/>
<path fill-rule="evenodd" clip-rule="evenodd" d="M18.4923 11C14.3544 11 11 14.3544 11 18.4923C11 22.6301 14.3544 25.9845 18.4923 25.9845C20.3064 25.9845 21.9699 25.3398 23.2662 24.2669L27.792 28.7927L27.8036 28.8041C28.0808 29.069 28.5202 29.0652 28.7927 28.7927C29.0691 28.5164 29.0691 28.0684 28.7927 27.792L24.2669 23.2662C25.3398 21.9699 25.9845 20.3064 25.9845 18.4923C25.9842 14.3545 22.63 11.0003 18.4923 11ZM18.4922 12.4152C21.8484 12.4154 24.5691 15.1361 24.5693 18.4923C24.5693 21.8485 21.8485 24.5693 18.4923 24.5693C15.136 24.5693 12.4152 21.8485 12.4152 18.4923C12.4152 15.136 15.136 12.4152 18.4922 12.4152Z" fill="#141E28"/>
</svg>
